HIERARCHY
ROOT Hips
{
 OFFSET 0.000000 0.000000 0.000000
 CHANNELS 6 Xposition Yposition Zposition Yrotation Xrotation Zrotation
 JOINT Chest
 {
  OFFSET 0.000000 10.080317 -0.001081
  CHANNELS 3 Yrotation Xrotation Zrotation
  JOINT Chest2
  {
   OFFSET 0.000000 11.096852 0.001963
   CHANNELS 3 Yrotation Xrotation Zrotation
   JOINT Chest3
   {
    OFFSET 0.000000 10.026525 0.000000
    CHANNELS 3 Yrotation Xrotation Zrotation
    JOINT Chest4
    {
     OFFSET 0.000000 10.026525 0.000000
     CHANNELS 3 Yrotation Xrotation Zrotation
     JOINT Neck
     {
      OFFSET 0.000000 14.108171 0.000000
      CHANNELS 3 Yrotation Xrotation Zrotation
      JOINT Head
      {
       OFFSET 0.000000 9.333493 0.004668
       CHANNELS 3 Yrotation Xrotation Zrotation
       End Site
       {
        OFFSET 0.000000 17.851786 0.002438
       }
      }
     }
     JOINT RightCollar
     {
      OFFSET -3.071622 7.873185 0.000000
      CHANNELS 3 Yrotation Xrotation Zrotation
      JOINT RightShoulder
      {
       OFFSET -14.378659 0.000000 0.000000
       CHANNELS 3 Yrotation Xrotation Zrotation
       JOINT RightElbow
       {
        OFFSET -30.778728 0.000000 0.000000
        CHANNELS 3 Yrotation Xrotation Zrotation
        JOINT RightWrist
        {
         OFFSET -25.164217 0.000000 0.000000
         CHANNELS 3 Yrotation Xrotation Zrotation
         End Site
         {
          OFFSET -18.796788 0.000000 0.000000
         }
        }
       }
      }
     }
     JOINT LeftCollar
     {
      OFFSET 3.071622 7.873185 0.000000
      CHANNELS 3 Yrotation Xrotation Zrotation
      JOINT LeftShoulder
      {
       OFFSET 14.378659 0.000000 0.000000
       CHANNELS 3 Yrotation Xrotation Zrotation
       JOINT LeftElbow
       {
        OFFSET 30.778728 0.000000 0.000000
        CHANNELS 3 Yrotation Xrotation Zrotation
        JOINT LeftWrist
        {
         OFFSET 25.164217 0.000000 0.000000
         CHANNELS 3 Yrotation Xrotation Zrotation
         End Site
         {
          OFFSET 18.796788 0.000000 0.000000
         }
        }
       }
      }
     }
    }
   }
  }
 }
 JOINT RightHip
 {
  OFFSET -8.194923 0.005295 0.000540
  CHANNELS 3 Yrotation Xrotation Zrotation
  JOINT RightKnee
  {
   OFFSET 0.000000 -42.473320 -0.000511
   CHANNELS 3 Yrotation Xrotation Zrotation
   JOINT RightAnkle
   {
    OFFSET 0.000000 -41.474259 -0.000865
    CHANNELS 3 Yrotation Xrotation Zrotation
    JOINT RightToe
    {
     OFFSET 0.000000 -7.354994 16.712725
     CHANNELS 3 Yrotation Xrotation Zrotation
     End Site
     {
      OFFSET 0.000000 -1.553903 6.764158
     }
    }
   }
  }
 }
 JOINT LeftHip
 {
  OFFSET 8.194923 0.005295 0.000540
  CHANNELS 3 Yrotation Xrotation Zrotation
  JOINT LeftKnee
  {
   OFFSET 0.000000 -42.473320 -0.000511
   CHANNELS 3 Yrotation Xrotation Zrotation
   JOINT LeftAnkle
   {
    OFFSET 0.000000 -41.474259 -0.000865
    CHANNELS 3 Yrotation Xrotation Zrotation
    JOINT LeftToe
    {
     OFFSET 0.000000 -7.354994 16.712725
     CHANNELS 3 Yrotation Xrotation Zrotation
     End Site
     {
      OFFSET 0.000000 -1.553903 6.764158
     }
    }
   }
  }
 }
}
MOTION
Frames: 5
Frame Time: 0.016667
120.088820 92.217835 634.216431 -163.311031 3.706958 3.361083 3.963230 3.621769 2.846767 1.692758 1.583229 1.138611 1.692758 1.583229 1.138611 1.266543 1.190591 0.849526 1.835357 11.131152 -1.196095 4.064258 -15.443102 -3.116767 -4.200127 -3.766112 8.582387 -5.629800 -3.432482 55.366171 43.929237 4.569303 17.714131 -2.852182 2.665477 -11.284739 -2.217287 -2.552329 -3.347986 -1.263350 -2.033017 -68.185990 -34.575817 26.420186 -31.499766 4.104931 7.353761 17.425094 -8.182071 3.005310 -1.041227 -5.979466 12.678386 -0.282238 -16.610795 -13.024894 1.354692 -0.164877 -5.736819 2.273882 -2.333403 -22.274352 3.899518 -3.636083 38.403506 -13.171823 10.954308 3.012136 -7.356558 -1.339488 -20.335908 7.244946
119.665243 92.275946 632.617283 -164.482003 3.805004 3.307562 4.032546 3.714544 2.894989 1.783770 1.690319 1.144350 1.783770 1.690319 1.144350 1.334570 1.271097 0.853274 1.998894 10.984651 -1.231422 4.402336 -15.705472 -3.265071 -3.942115 -3.834045 8.617323 -5.372768 -4.034133 54.800267 45.499981 4.307915 18.389834 -2.923689 2.670449 -11.236280 -2.154306 -2.691130 -3.195894 -0.945104 -1.888259 -67.831563 -34.021567 26.331166 -31.108804 4.223964 7.260797 17.387297 -7.589807 4.266555 -1.306263 -6.222047 11.748024 -0.065049 -15.992592 -12.093959 0.718657 -0.250086 -7.117825 3.307009 -3.980232 -23.655909 3.389640 -2.565047 33.692357 -11.351984 10.120911 3.226607 -6.703855 -1.103483 -15.884772 7.717525
119.270189 92.296073 630.903800 -165.846832 3.710073 3.200024 4.264743 3.989078 2.956760 1.875690 1.794607 1.140149 1.875690 1.794607 1.140149 1.403309 1.349474 0.849542 2.160356 10.854721 -1.242522 4.725592 -15.937873 -3.365780 -3.683916 -3.911671 8.664005 -5.176133 -4.542312 54.312498 47.036307 4.035878 19.030005 -2.998102 2.669888 -11.172300 -2.108471 -2.833737 -2.991887 -0.710766 -1.751002 -67.431717 -33.446572 26.306383 -30.717305 4.324018 7.187915 17.347617 -6.794207 5.749772 -1.506178 -6.485419 10.872495 0.103483 -15.381463 -11.179925 0.068885 -0.361920 -8.526288 4.329844 -5.505445 -24.254037 3.153486 -1.685164 28.385553 -9.390785 8.980975 3.282380 -6.312357 -0.622162 -10.665610 7.640792
118.899710 92.284458 629.130491 -167.103967 3.658129 3.123530 4.416248 4.184734 2.931743 1.958519 1.894384 1.128638 1.958519 1.894384 1.128638 1.465262 1.424427 0.840339 2.313833 10.737480 -1.234199 5.024692 -16.147791 -3.425444 -3.423605 -4.063171 8.750093 -5.002782 -4.945452 53.866446 48.466484 3.704253 19.578482 -3.016397 2.644395 -11.106455 -2.046103 -3.023736 -2.809727 -0.479949 -1.582821 -66.972560 -32.931521 26.388125 -30.348826 4.419530 7.152337 17.337469 -6.005158 7.187973 -1.674835 -6.701556 10.064510 0.227864 -15.010264 -10.327819 -0.521552 -0.500192 -9.908556 5.342402 -6.540336 -24.419996 2.976067 -0.897753 22.564530 -7.389819 7.945384 3.520087 -5.810060 0.070793 -2.747784 4.029404
118.727993 92.244289 627.364174 -168.473392 3.555746 2.959809 4.652111 4.398094 2.936741 2.046681 1.988656 1.110895 2.046681 1.988656 1.110895 1.531247 1.495238 0.826436 2.458881 10.659511 -1.192070 5.290436 -16.286986 -3.414139 -3.187563 -4.243499 8.839500 -4.844978 -5.248079 53.524602 49.759149 3.382993 20.050787 -3.019393 2.595427 -11.044351 -2.020808 -3.248951 -2.660613 -0.278774 -1.383867 -66.435036 -32.415060 26.570972 -29.981715 4.488645 7.146247 17.325732 -5.115386 8.825077 -1.819095 -6.601039 9.025009 0.386252 -12.443165 -9.514765 -2.050400 -0.640089 -11.435441 6.597755 -7.363019 -24.138428 2.970575 -0.717459 16.564901 -5.578702 7.402440 3.756611 -5.286152 0.199753 1.794269 1.630753
